<?xml version="1.0" encoding="UTF-8"?>
<svg
  width="561.09"
  height="178.2"
  clip-rule="evenodd"
  fill-rule="evenodd"
  stroke-linejoin="round"
  stroke-miterlimit="2"
  version="1.1"
  viewBox="0 0 561.09 178.2"
  xml:space="preserve"
  xmlns="http://www.w3.org/2000/svg"
  xmlns:xlink="http://www.w3.org/1999/xlink">
  <animate
    id="masterAnim"
    begin="click"
    dur="4.6"
    restart="always"/>

  <defs>

    <linearGradient id="linearGradient4901" x1="251.44" x2="250.3" y1="269.02" y2="429.18" gradientTransform="matrix(1.1104 0 0 1.1104 -91.274 7.7082)" gradientUnits="userSpaceOnUse"><stop stop-color="#5c6bc0" offset="0"/><stop stop-color="#8a7ab4" offset=".42"/><stop stop-color="#ef9a9a" offset="1"/></linearGradient>

  </defs>
  <g transform="translate(-122.51 -306.43)" clip-rule="evenodd">
    <g fill-rule="nonzero" stroke-linejoin="round" stroke-miterlimit="2" stroke-width="2.1986px"><path
      d="m317.43 382.67c-3.3634 0-6.609-0.71065-9.7359-2.132-3.1269-1.4213-5.6852-3.5888-7.675-6.5024-1.9898-2.9136-2.9847-6.4791-2.9847-10.695v-28.071c0-0.90052 0.30757-1.67 0.92384-2.3096 0.61626-0.63959 1.3736-0.95938 2.2741-0.95938 0.90053 0 1.67 0.31979 2.3096 0.95938 0.63958 0.63958 0.95937 1.4091 0.95937 2.3096v28.284c0 2.8426 0.6518 5.2588 1.9543 7.2486 1.3025 1.9898 3.0203 3.4822 5.1522 4.4771 2.132 0.9949 4.406 1.4924 6.8222 1.4924 2.4162 0 4.6903-0.49746 6.8222-1.4924 2.132-0.99491 3.8497-2.4873 5.1522-4.4771 1.3025-1.9898 1.9543-4.406 1.9543-7.2486v-28.284c0-0.90052 0.30758-1.67 0.92385-2.3096 0.61626-0.63959 1.3736-0.95938 2.2741-0.95938s1.67 0.31979 2.3096 0.95938c0.63958 0.63958 0.95937 1.4091 0.95937 2.3096v28.071c0 4.2161-0.99491 7.7816-2.9847 10.695-1.9898 2.9137-4.5482 5.0811-7.675 6.5024-3.1268 1.4213-6.3725 2.132-9.7359 2.132z"
      fill="#5c6bc0"
      stroke="#5c6bc0"/><path
      d="m355.1 382.31c-0.90053 0-1.6578-0.30869-2.2741-0.92384-0.61626-0.61627-0.92384-1.3747-0.92384-2.2741v-30.487c0-0.90053 0.30758-1.67 0.92384-2.3096 0.61627-0.63958 1.3736-0.95937 2.2741-0.95937 0.90052 0 1.67 0.31979 2.3096 0.95937 0.63959 0.63958 0.95938 1.4091 0.95938 2.3096v2.9136c1.7999-1.9898 3.7431-3.5777 5.8273-4.7613 2.0842-1.1848 4.5482-1.7766 7.3907-1.7766 2.6061 0 4.8679 0.61516 6.7867 1.8477 1.9188 1.2314 3.3878 2.9136 4.406 5.0456 1.0182 2.1319 1.5279 4.4771 1.5279 7.0354v20.182c0 0.89941-0.31979 1.6578-0.95937 2.2741-0.63959 0.61515-1.4091 0.92384-2.3096 0.92384s-1.6578-0.30869-2.2741-0.92384c-0.61627-0.61627-0.92385-1.3747-0.92385-2.2741v-19.472c0-5.7807-2.6061-8.6699-7.8171-8.6699-2.3685 0-4.4893 0.61516-6.3603 1.8477-1.871 1.2314-3.6365 2.8892-5.2943 4.9745v21.319c0 0.89941-0.31979 1.6578-0.95938 2.2741-0.63958 0.61515-1.4091 0.92384-2.3096 0.92384z"
      fill="#6571b8"
      stroke="#6571b8"/><path
      d="m410.03 382.67c-6.9166 0-10.375-3.1269-10.375-9.3806v-22.03h-5.0456c-0.37865 0-0.69844-0.13102-0.95938-0.39085-0.26094-0.26094-0.39085-0.58074-0.39085-0.95938 0-0.47413 0.21319-0.8772 0.63958-1.2081l9.6648-9.4516c0.42639-0.42639 0.82946-0.63958 1.2081-0.63958s0.69844 0.14213 0.95938 0.42639 0.39085 0.61515 0.39085 0.99491v5.6852h8.0303c0.80503 0 1.469 0.25983 1.9898 0.78171 0.52077 0.52077 0.78171 1.1837 0.78171 1.9898 0 0.75728-0.26094 1.4091-0.78171 1.9543-0.52077 0.54409-1.1848 0.81724-1.9898 0.81724h-8.0303v21.462c0 1.8477 0.43861 3.0203 1.3147 3.5177 0.8761 0.49745 1.9776 0.74618 3.3045 0.74618 0.94716 0 1.8954-0.14213 2.8426-0.42639 0.18987-0.0477 0.39085-0.0955 0.60405-0.14213 0.21319-0.0477 0.48524-0.0711 0.81724-0.0711 0.66291 0 1.2558 0.24873 1.7766 0.74618 0.52078 0.49745 0.78172 1.1015 0.78172 1.8122 0 1.0893-0.5452 1.9188-1.6345 2.4873-1.8477 0.85278-3.8142 1.2792-5.8984 1.2792z"
      fill="#7275b5"
      stroke="#7275b5"/><path
      d="m431.07 382.31c-0.90053 0-1.6578-0.30869-2.2741-0.92384-0.61627-0.61627-0.92385-1.3747-0.92385-2.2741v-30.487c0-0.90053 0.30758-1.67 0.92385-2.3096 0.61626-0.63958 1.3735-0.95937 2.2741-0.95937 0.90052 0 1.67 0.31979 2.3096 0.95937 0.63959 0.63958 0.95938 1.4091 0.95938 2.3096v3.0558c3.3167-4.4538 7.0354-6.6801 11.157-6.6801h0.35533c0.90052 0 1.6467 0.30758 2.2385 0.92384 0.59183 0.61516 0.88831 1.3736 0.88831 2.2741 0 0.89941-0.30758 1.6345-0.92384 2.203-0.61627 0.56851-1.398 0.85277-2.3451 0.85277h-0.35533c-2.2741 0-4.3583 0.55631-6.2537 1.67-1.8954 1.1126-3.4822 2.6405-4.7613 4.5837v21.604c0 0.89941-0.31979 1.6578-0.95938 2.2741-0.63958 0.61515-1.4091 0.92384-2.3096 0.92384z"
      fill="#7275b5"
      stroke="#7275b5"/><path
      d="m467.52 382.67c-2.0842 0-4.0152-0.42639-5.7918-1.2792s-3.1857-2.0964-4.2284-3.7309c-1.0426-1.6345-1.5634-3.5177-1.5634-5.6496 0-3.5066 1.3858-6.3014 4.1573-8.3856 2.7715-2.0853 6.8344-3.1268 12.188-3.1268h8.5988v-0.56852c0-3.1268-0.76949-5.3776-2.3096-6.7512-1.5401-1.3747-3.9441-2.0609-7.2131-2.0609-1.7999 0-3.3989 0.14213-4.7969 0.42639-1.398 0.28426-2.9492 0.71065-4.6548 1.2792-0.37864 0.0944-0.68733 0.14213-0.92384 0.14213-0.71065 0-1.3269-0.26094-1.8477-0.78171-0.52077-0.52189-0.78171-1.1615-0.78171-1.9188 0-1.2792 0.61627-2.1797 1.8477-2.7005 4.0274-1.7056 8.1247-2.5583 12.294-2.5583 3.269 0 6.0283 0.6629 8.279 1.9898 2.2508 1.3258 3.9086 3.0436 4.9745 5.1522 1.066 2.1075 1.599 4.3938 1.599 6.8578v20.111c0 0.89941-0.31979 1.6578-0.95937 2.2741-0.63959 0.61515-1.4091 0.92384-2.3096 0.92384s-1.6578-0.30869-2.2741-0.92384c-0.61627-0.61627-0.92385-1.3747-0.92385-2.2741v-1.8477c-3.5055 3.5999-7.9592 5.4009-13.36 5.4009zm2.4162-5.6852c2.0842 0 4.0984-0.50967 6.0405-1.5279 1.9421-1.0193 3.5766-2.2863 4.9035-3.802v-5.9694h-7.7461c-7.1542 0-10.731 1.871-10.731 5.6141 0 1.7056 0.58073 3.0791 1.7411 4.1218 1.1604 1.0415 3.0913 1.5634 5.7918 1.5634z"
      fill="#897cb1"
      stroke="#897cb1"/><path
      d="m513.64 382.31c-0.85278 0-1.6345-0.24873-2.3451-0.74618s-1.2314-1.1259-1.5634-1.8832l-12.365-29.563c-0.23652-0.56852-0.35533-1.066-0.35533-1.4924 0-0.90053 0.30758-1.67 0.92385-2.3096 0.61626-0.63958 1.3735-0.95937 2.2741-0.95937 0.61626 0 1.1959 0.17766 1.7411 0.53298 0.5452 0.35533 0.93605 0.79282 1.1726 1.3147l10.873 27.573 10.873-27.573c0.23652-0.52188 0.62737-0.95937 1.1726-1.3147 0.5452-0.35532 1.1248-0.53298 1.7411-0.53298 0.90053 0 1.6578 0.31979 2.2741 0.95937 0.61626 0.63958 0.92384 1.4091 0.92384 2.3096 0 0.42639-0.11881 0.92384-0.35533 1.4924l-12.365 29.563c-0.33201 0.75729-0.85278 1.3858-1.5634 1.8832s-1.4924 0.74618-2.3451 0.74618z"
      fill="#9981ad"
      stroke="#9981ad"/><path
      d="m557.35 382.67c-5.7796 0-10.292-1.6467-13.538-4.939-3.2457-3.2934-4.8679-7.9237-4.8679-13.893 0-3.3645 0.61626-6.4669 1.8477-9.3095 1.2314-2.8426 3.1268-5.1411 5.6852-6.8933 2.5583-1.7533 5.7085-2.6294 9.4516-2.6294 3.5055 0 6.538 0.81725 9.0963 2.4517 2.5583 1.6345 4.5004 3.8131 5.8273 6.538 1.3269 2.7238 1.9898 5.6963 1.9898 8.9186 0 0.89942-0.29647 1.6578-0.88831 2.2741-0.59183 0.61516-1.3858 0.92385-2.3807 0.92385h-24.091c0.37864 3.3156 1.6112 5.8984 3.6954 7.7461 2.0842 1.8477 4.9978 2.7715 8.741 2.7715 1.9898 0 3.7309-0.18988 5.2233-0.56852 1.4924-0.37975 2.9492-0.92384 4.3705-1.6345 0.37865-0.18988 0.80504-0.28426 1.2792-0.28426 0.7584 0 1.4213 0.25983 1.9898 0.78171 0.56851 0.52077 0.85277 1.1837 0.85277 1.9898 0 1.0415-0.61626 1.9188-1.8477 2.6294-1.8477 1.0416-3.672 1.8233-5.472 2.3451-1.7999 0.52077-4.1218 0.78172-6.9644 0.78172zm9.0963-21.817c-0.14213-2.3218-0.74618-4.2639-1.8122-5.8273-1.066-1.5634-2.3807-2.7127-3.9441-3.4466-1.5634-0.73508-3.1502-1.1015-4.7613-1.1015s-3.1979 0.36643-4.7613 1.1015c-1.5634 0.73396-2.8659 1.8832-3.9086 3.4466-1.0427 1.5634-1.6345 3.5055-1.7766 5.8273z"
      fill="#aa86a9"
      stroke="#aa86a9"/><path
      d="m587.76 382.31c-0.90052 0-1.6578-0.30869-2.2741-0.92384-0.61627-0.61627-0.92384-1.3747-0.92384-2.2741v-46.121c0-0.90052 0.30757-1.67 0.92384-2.3096 0.61626-0.63958 1.3736-0.95937 2.2741-0.95937 0.94716 0 1.7289 0.30758 2.3451 0.92384 0.61627 0.61516 0.92384 1.3969 0.92384 2.3451v46.121c0 0.89941-0.31979 1.6578-0.95937 2.2741-0.63958 0.61515-1.4091 0.92384-2.3096 0.92384z"
      fill="#be8ca5"
      stroke="#be8ca5"/><path
      d="m621.66 382.67c-5.7796 0-10.292-1.6467-13.538-4.939-3.2457-3.2934-4.8679-7.9237-4.8679-13.893 0-3.3645 0.61626-6.4669 1.8477-9.3095 1.2314-2.8426 3.1269-5.1411 5.6852-6.8933 2.5583-1.7533 5.7085-2.6294 9.4516-2.6294 3.5055 0 6.538 0.81725 9.0963 2.4517s4.5004 3.8131 5.8273 6.538c1.3269 2.7238 1.9898 5.6963 1.9898 8.9186 0 0.89942-0.29647 1.6578-0.88831 2.2741-0.59184 0.61516-1.3858 0.92385-2.3807 0.92385h-24.091c0.37864 3.3156 1.6112 5.8984 3.6954 7.7461 2.0842 1.8477 4.9978 2.7715 8.741 2.7715 1.9898 0 3.7309-0.18988 5.2233-0.56852 1.4924-0.37975 2.9492-0.92384 4.3705-1.6345 0.37864-0.18988 0.80503-0.28426 1.2792-0.28426 0.75839 0 1.4213 0.25983 1.9898 0.78171 0.56852 0.52077 0.85278 1.1837 0.85278 1.9898 0 1.0415-0.61627 1.9188-1.8477 2.6294-1.8477 1.0416-3.672 1.8233-5.472 2.3451-1.7999 0.52077-4.1218 0.78172-6.9644 0.78172zm9.0963-21.817c-0.14213-2.3218-0.74618-4.2639-1.8122-5.8273-1.066-1.5634-2.3807-2.7127-3.9441-3.4466-1.5634-0.73508-3.1502-1.1015-4.7613-1.1015-1.6112 0-3.1979 0.36643-4.7614 1.1015-1.5634 0.73396-2.8659 1.8832-3.9086 3.4466-1.0426 1.5634-1.6345 3.5055-1.7766 5.8273z"
      fill="#c78ea3"
      stroke="#c78ea3"/><path
      d="m663.87 382.67c-2.937 0-5.7207-0.74618-8.3501-2.2386-2.6294-1.4924-4.7613-3.672-6.3958-6.538-1.6345-2.867-2.4517-6.2182-2.4517-10.056s0.81725-7.1898 2.4517-10.056c1.6345-2.867 3.7664-5.0456 6.3958-6.538s5.4131-2.2385 8.3501-2.2385c4.6425 0 8.6932 1.7999 12.152 5.4009v-17.411c0-0.94827 0.3198-1.73 0.95938-2.3451 0.63958-0.61626 1.4091-0.92384 2.3096-0.92384 0.90052 0 1.6578 0.31979 2.2741 0.95937 0.61626 0.63959 0.92384 1.4091 0.92384 2.3096v46.121c0 0.89941-0.30758 1.6578-0.92384 2.2741-0.61627 0.61515-1.3736 0.92384-2.2741 0.92384-0.90053 0-1.67-0.30869-2.3096-0.92384-0.63958-0.61627-0.95938-1.3747-0.95938-2.2741v-1.8477c-3.4588 3.5999-7.5096 5.4009-12.152 5.4009zm0.92385-6.0405c2.1797 0 4.2284-0.48635 6.1471-1.4568 1.9188-0.97159 3.6121-2.263 5.0811-3.873v-14.924c-1.469-1.6112-3.1624-2.9026-5.0811-3.873-1.9188-0.97159-3.9674-1.4568-6.1471-1.4568-3.5055 0-6.3248 1.1126-8.4567 3.34-2.1319 2.2263-3.1979 5.3765-3.1979 9.4516 0 4.074 1.066 7.2242 3.1979 9.4516 2.132 2.2263 4.9512 3.34 8.4567 3.34z"
      fill="#dc949e"
      stroke="#dc949e"/><path
      d="m300.59 466.7c-0.90053 0-1.6578-0.30869-2.2741-0.92384-0.61626-0.61627-0.92384-1.3747-0.92384-2.2741v-43.492c0-0.90053 0.30758-1.67 0.92384-2.3096 0.61627-0.63958 1.3736-0.95937 2.2741-0.95937h16.558c6.4436 0 11.276 1.3258 14.497 3.9796 3.2212 2.6527 4.8324 6.1349 4.8324 10.447 0 2.8426-0.79393 5.4365-2.3807 7.7816s-3.8964 4.0385-6.9288 5.0811c3.4111 0.89941 5.744 3.0202 6.9999 6.3603 1.2558 3.34 1.8832 6.6201 1.8832 9.8425v3.269c0 0.89941-0.30758 1.6578-0.92384 2.2741-0.61627 0.61515-1.3736 0.92384-2.2741 0.92384-0.99491 0-1.7888-0.29647-2.3807-0.88831-0.59183-0.59295-0.88831-1.3624-0.88831-2.3096v-2.132c0-2.3696-0.21319-4.5604-0.63958-6.5735-0.42639-2.0142-1.4446-3.8142-3.0558-5.4009-1.6112-1.5878-4.0507-2.3807-7.3197-2.3807h-14.71v16.487c0 0.89941-0.31979 1.6578-0.95938 2.2741-0.63958 0.61515-1.4091 0.92384-2.3096 0.92384zm16.132-25.797c4.074 0 7.3075-0.80614 9.7003-2.4162 2.3929-1.6112 3.5888-3.8852 3.5888-6.8222 0-2.8426-1.0304-5.0223-3.0913-6.538-2.0609-1.5168-5.5786-2.2741-10.553-2.2741h-12.507v18.05z"
      fill="#5c6bc0"
      stroke="#5c6bc0"/><path
      d="m365.9 467.06c-3.6476 0-6.8455-0.78172-9.5938-2.3451-2.7482-1.5634-4.8679-3.7786-6.3603-6.6446-1.4924-2.867-2.2385-6.1471-2.2385-9.8425s0.74618-6.9766 2.2385-9.8425c1.4924-2.867 3.6121-5.0811 6.3603-6.6446s5.9461-2.3451 9.5938-2.3451c3.601 0 6.7745 0.78171 9.5227 2.3451s4.8802 3.7775 6.3958 6.6446c1.5157 2.8659 2.2741 6.1471 2.2741 9.8425s-0.7584 6.9755-2.2741 9.8425c-1.5157 2.8659-3.6476 5.0811-6.3958 6.6446-2.7482 1.5634-5.9217 2.3451-9.5227 2.3451zm0-5.8984c1.9421 0 3.802-0.45082 5.5786-1.3502 1.7766-0.90053 3.2457-2.3218 4.406-4.2639 1.1604-1.9432 1.7411-4.406 1.7411-7.3907 0-2.9381-0.58073-5.3776-1.7411-7.3197-1.1604-1.9432-2.6294-3.3523-4.406-4.2284-1.7766-0.87721-3.6365-1.3147-5.5786-1.3147-1.9898 0-3.873 0.43749-5.6496 1.3147-1.7766 0.87609-3.2334 2.2852-4.3705 4.2284-1.137 1.9421-1.7056 4.3816-1.7056 7.3197 0 2.9847 0.56851 5.4476 1.7056 7.3907 1.137 1.9421 2.5939 3.3634 4.3705 4.2639 1.7766 0.89941 3.6598 1.3502 5.6496 1.3502z"
      fill="#6571b8"
      stroke="#6571b8"/><path
      d="m405.55 467.06c-2.0842 0-4.0152-0.42639-5.7918-1.2792s-3.1857-2.0964-4.2284-3.7309c-1.0427-1.6345-1.5634-3.5177-1.5634-5.6496 0-3.5066 1.3858-6.3014 4.1573-8.3856 2.7715-2.0853 6.8344-3.1268 12.188-3.1268h8.5988v-0.56852c0-3.1268-0.7695-5.3776-2.3096-6.7512-1.5401-1.3747-3.9441-2.0609-7.2131-2.0609-1.7999 0-3.3989 0.14213-4.7969 0.42639s-2.9492 0.71065-4.6547 1.2792c-0.37865 0.0944-0.68733 0.14213-0.92385 0.14213-0.71064 0-1.3269-0.26094-1.8477-0.78171-0.52077-0.52189-0.78171-1.1615-0.78171-1.9188 0-1.2792 0.61626-2.1797 1.8477-2.7005 4.0274-1.7056 8.1247-2.5583 12.294-2.5583 3.269 0 6.0283 0.6629 8.279 1.9898 2.2508 1.3258 3.9086 3.0436 4.9745 5.1522 1.066 2.1075 1.599 4.3938 1.599 6.8578v20.111c0 0.89941-0.31979 1.6578-0.95937 2.2741-0.63958 0.61515-1.4091 0.92384-2.3096 0.92384-0.90052 0-1.6578-0.30869-2.2741-0.92384-0.61626-0.61627-0.92384-1.3747-0.92384-2.2741v-1.8477c-3.5055 3.5999-7.9593 5.4009-13.36 5.4009zm2.4162-5.6852c2.0842 0 4.0984-0.50967 6.0405-1.5279 1.9421-1.0193 3.5766-2.2863 4.9035-3.802v-5.9694h-7.7461c-7.1542 0-10.731 1.871-10.731 5.6141 0 1.7056 0.58073 3.0791 1.7411 4.1218 1.1604 1.0415 3.0913 1.5634 5.7918 1.5634z"
      fill="#7275b5"
      stroke="#7275b5"/><path
      d="m454.45 467.06c-2.937 0-5.7207-0.74618-8.3501-2.2386-2.6294-1.4924-4.7613-3.672-6.3958-6.538-1.6345-2.867-2.4517-6.2182-2.4517-10.056s0.81724-7.1898 2.4517-10.056c1.6345-2.867 3.7664-5.0456 6.3958-6.538 2.6294-1.4924 5.4131-2.2385 8.3501-2.2385 4.6425 0 8.6932 1.7999 12.152 5.4009v-17.411c0-0.94827 0.31979-1.73 0.95937-2.3451 0.63959-0.61626 1.4091-0.92384 2.3096-0.92384s1.6578 0.31979 2.2741 0.95937c0.61627 0.63959 0.92385 1.4091 0.92385 2.3096v46.121c0 0.89941-0.30758 1.6578-0.92385 2.2741-0.61626 0.61515-1.3736 0.92384-2.2741 0.92384s-1.67-0.30869-2.3096-0.92384c-0.63958-0.61627-0.95937-1.3747-0.95937-2.2741v-1.8477c-3.4589 3.5999-7.5096 5.4009-12.152 5.4009zm0.92384-6.0405c2.1797 0 4.2284-0.48635 6.1471-1.4568 1.9188-0.97159 3.6121-2.263 5.0811-3.873v-14.924c-1.469-1.6112-3.1624-2.9026-5.0811-3.873-1.9188-0.97159-3.9674-1.4568-6.1471-1.4568-3.5055 0-6.3248 1.1126-8.4567 3.34-2.1319 2.2263-3.1979 5.3765-3.1979 9.4516 0 4.074 1.066 7.2242 3.1979 9.4516 2.1319 2.2263 4.9512 3.34 8.4567 3.34z"
      fill="#897cb1"
      stroke="#897cb1"/><path
      d="m499.22 467.06c-4.738 0-9.0486-1.066-12.934-3.1979-0.80503-0.56852-1.2081-1.3502-1.2081-2.3451 0-0.75839 0.26094-1.4213 0.78171-1.9898s1.1848-0.85278 1.9898-0.85278c0.42639 0 0.85278 0.0944 1.2792 0.28426 1.5157 0.6629 3.0325 1.1837 4.5482 1.5634 1.5157 0.37865 3.2212 0.56852 5.1167 0.56852 5.2588 0 7.8882-1.6822 7.8882-5.0456 0-1.0904-0.60405-1.9188-1.8122-2.4873-1.2081-0.56851-3.1857-1.2081-5.9339-1.9188-2.7948-0.66401-5.1044-1.3502-6.9288-2.0609-1.8244-0.71064-3.3878-1.7888-4.6903-3.2334-1.3025-1.4457-1.9543-3.3523-1.9543-5.7207 0-3.3167 1.1959-6.0172 3.5888-8.1014 2.3929-2.0853 5.8151-3.1268 10.269-3.1268 3.6476 0 7.0832 0.59184 10.304 1.7766 0.6629 0.18877 1.1726 0.54409 1.5279 1.066 0.35533 0.52078 0.53299 1.066 0.53299 1.6345 0 0.75729-0.27205 1.4213-0.81725 1.9898s-1.2203 0.85278-2.0253 0.85278c-0.23652 0-0.54521-0.0478-0.92385-0.14213-2.7482-0.85278-5.4487-1.2792-8.1014-1.2792-2.5583 0-4.5604 0.46192-6.005 1.3858-1.4446 0.92385-2.1675 2.1197-2.1675 3.5888 0 1.4213 0.6629 2.4628 1.9898 3.1268 1.3269 0.6629 3.3878 1.3025 6.1826 1.9188 2.7948 0.71064 5.0689 1.4091 6.8222 2.0964 1.7533 0.68622 3.2568 1.7644 4.5126 3.2334 1.2558 1.4679 1.8832 3.4344 1.8832 5.8984 0 3.0314-1.1959 5.543-3.5888 7.5329-2.3929 1.9898-5.7685 2.9847-10.127 2.9847z"
      fill="#9981ad"
      stroke="#9981ad"/></g><path
      d="m187.92 306.43c-6.1584-0.10264-10.541 3.1158-13.119 6.1875-2.578 3.0717-3.6562 6.2109-3.6562 6.2109-0.0151 0.0478-0.0287 0.096-0.041 0.14453-8.8016 1.8637-19.869 6.1769-29.1 16.01-13.368 14.24-13.094 41.091-15.641 59.068-2.6273 18.545-3.9238 53.826-3.8516 62.574 0.0721 8.7486 0.0341 13.013 1.002 15.346 1.9357 4.6654 10.539 11.97 20.338 12.553 14.265 0.12515 35.518-0.0144 42.797-0.0527s32.671 0.21096 42.637 0.0527c9.7987-0.58262 18.404-7.8873 20.34-12.553 0.96784-2.3327 0.92787-6.5971 1-15.346 0.0722-8.7486-1.2243-44.029-3.8516-62.574-2.5468-17.977-2.2704-44.828-15.639-59.068-8.4071-8.9553-18.341-13.334-26.697-15.453-0.0102-0.038-0.0213-0.0758-0.0332-0.11328 0 0-4.158-12.781-16.484-12.986zm-0.0879 5.1992c5.6022 0.0934 8.7811 3.9164 10.354 6.6524-6.7551-1.0773-14.329-0.98311-20.83-0.31054 0.38767-0.6342 0.83773-1.3087 1.4277-2.0117 1.9283-2.2976 4.683-4.4028 9.0488-4.3301z"
      fill="url(#linearGradient4901)"
      fill-rule="evenodd"/></g>
  <g transform="translate(-122.51 -308.83)"><animateTransform
    attributeName="transform"
    type="translate"
    attributeType="XML"
    dur="1.15s"
    begin="masterAnim.begin"
    values="-122.51 ,-308.83 ; -122.51 ,-322.55034 ; -122.51 ,-308.83 "
    keyTimes="0 ; 0.5 ; 1"
    repeatCount="4"
    calcMode="spline"
    keySplines="0.2 0.40 0.4 0.92;
             0.6 0.08 0.8 0.60"
    id="transAnim"/>
    <g transform="translate(0 0)" clip-rule="evenodd" fill-rule="evenodd" stroke-linejoin="round" stroke-miterlimit="2">
      <animateTransform
        attributeName="transform"
        attributeType="XML"
        type="rotate"
        from="360 187.92189 402.94242"
        to="0 187.92189 402.94242"
        dur="4.6s"
        begin="transAnim.begin"
        repeatCount="1"
        id="rotAnim"/>

      <g transform="matrix(1.0296 0 0 1.0296 -68.249 37.996)">
        <g transform="matrix(1.2242 0 0 1.1853 -53.357 151.35)"><path
          d="m248.51 146.83c0-0.476-0.183-0.933-0.509-1.27-0.327-0.337-0.769-0.526-1.23-0.526h-1e-3c-0.461 0-0.903 0.189-1.23 0.526-0.326 0.337-0.509 0.794-0.509 1.27v4.616c0 0.477 0.183 0.933 0.509 1.27 0.327 0.337 0.769 0.526 1.23 0.526h1e-3c0.461 0 0.903-0.189 1.23-0.526 0.326-0.337 0.509-0.793 0.509-1.27v-4.616z"
          fill="#fbcc80"/></g>
      </g>
      <g fill="#fbcc80"><path d="m206.83 402.95a18.983 18.983 0 0 1-18.983 18.983 18.983 18.983 0 0 1-18.983-18.983 18.983 18.983 0 0 1 18.983-18.983 18.983 18.983 0 0 1 18.983 18.983z" stroke-width=".77073"/><path
        transform="matrix(1.0296 0 0 1.0296 -68.249 37.996)"
        d="m250.87 325.39c0-0.56421-0.22403-1.1059-0.62312-1.5054-0.40031-0.39945-0.94141-0.62347-1.5058-0.62347h-1e-3c-0.56435 0-1.1054 0.22402-1.5058 0.62347-0.39909 0.39946-0.62312 0.94115-0.62312 1.5054v5.4714c0 0.5654 0.22403 1.1059 0.62312 1.5054 0.40031 0.39946 0.94141 0.62348 1.5058 0.62348h1e-3c0.56435 0 1.1054-0.22402 1.5058-0.62348 0.39909-0.39945 0.62312-0.93995 0.62312-1.5054v-5.4714z"
        stroke-width="1.2046"/>
        <g stroke-width="1.2402"><path
          d="m217.85 405.06c0.58089 0 1.1386-0.23065 1.5499-0.64154 0.41126-0.41215 0.6419-0.96924 0.6419-1.5503v-1e-3c0-0.58103-0.23064-1.1381-0.6419-1.5503-0.41127-0.41089-0.96898-0.64154-1.5499-0.64154h-5.6332c-0.58211 0-1.1386 0.23065-1.5499 0.64154-0.41127 0.41215-0.64191 0.96925-0.64191 1.5503v1e-3c0 0.58104 0.23064 1.1381 0.64191 1.5503 0.41127 0.41089 0.96775 0.64154 1.5499 0.64154h5.6332z"/><path
          d="m185.8 432.87c0 0.58089 0.23065 1.1386 0.64154 1.5499 0.41215 0.41126 0.96924 0.6419 1.5503 0.6419h1e-3c0.58103 0 1.1381-0.23064 1.5503-0.6419 0.41089-0.41127 0.64154-0.96898 0.64154-1.5499v-5.6332c0-0.58211-0.23065-1.1386-0.64154-1.5499-0.41215-0.41127-0.96925-0.64191-1.5503-0.64191h-1e-3c-0.58104 0-1.1381 0.23064-1.5503 0.64191-0.41089 0.41127-0.64154 0.96775-0.64154 1.5499v5.6332z"/><path
          d="m157.99 400.82c-0.58089 0-1.1386 0.23065-1.5499 0.64154-0.41126 0.41215-0.6419 0.96924-0.6419 1.5503v1e-3c0 0.58103 0.23064 1.1381 0.6419 1.5503 0.41127 0.41089 0.96898 0.64154 1.5499 0.64154h5.6332c0.58211 0 1.1386-0.23065 1.5499-0.64154 0.41127-0.41215 0.64191-0.96925 0.64191-1.5503v-1e-3c0-0.58104-0.23064-1.1381-0.64191-1.5503-0.41127-0.41089-0.96775-0.64154-1.5499-0.64154h-5.6332z"/><path
          d="m190.04 373.01c0-0.58089-0.23065-1.1386-0.64154-1.5499-0.41215-0.41126-0.96924-0.6419-1.5503-0.6419h-1e-3c-0.58103 0-1.1381 0.23064-1.5503 0.6419-0.41089 0.41127-0.64154 0.96898-0.64154 1.5499v5.6332c0 0.58211 0.23065 1.1386 0.64154 1.5499 0.41215 0.41127 0.96925 0.64191 1.5503 0.64191h1e-3c0.58104 0 1.1381-0.23064 1.5503-0.64191 0.41089-0.41127 0.64154-0.96775 0.64154-1.5499v-5.6332z"/><path
          d="m210.58 383.27c0.41076-0.41075 0.64202-0.96821 0.64229-1.5496-6.3e-4 -0.58224-0.23146-1.1392-0.64232-1.5501l-7.1e-4 -7e-4c-0.41085-0.41085-0.96786-0.6417-1.5501-0.64232-0.58136 2.6e-4 -1.1388 0.23153-1.5496 0.64228l-3.9833 3.9833c-0.41162 0.41162-0.64202 0.9682-0.64228 1.5496 6.2e-4 0.58224 0.23146 1.1393 0.64231 1.5501l7.1e-4 7.1e-4c0.41085 0.41085 0.96786 0.64169 1.5501 0.64231 0.58135-2.7e-4 1.1379-0.23066 1.5496-0.64228 1.1814-1.1814 2.8019-2.8019 3.9833-3.9833z"/><path
          d="m207.59 425.61c0.41075 0.41075 0.9682 0.64201 1.5496 0.64228 0.58224-6.3e-4 1.1392-0.23146 1.5501-0.64232l7.1e-4 -7.1e-4c0.41085-0.41085 0.64169-0.96786 0.64232-1.5501-2.7e-4 -0.58136-0.23153-1.1388-0.64228-1.5496-1.1814-1.1814-2.8019-2.8019-3.9833-3.9833-0.41161-0.41162-0.96819-0.64201-1.5496-0.64228-0.58225 6.2e-4 -1.1393 0.23146-1.5501 0.64231l-7.1e-4 7.1e-4c-0.41086 0.41086-0.64169 0.96787-0.64231 1.5501 2.7e-4 0.58136 0.23066 1.1379 0.64228 1.5496 1.1814 1.1814 2.8019 2.8019 3.9833 3.9833z"/><path
          d="m165.26 422.61c-0.41075 0.41075-0.64202 0.9682-0.64229 1.5496 6.3e-4 0.58224 0.23147 1.1392 0.64233 1.5501 0 0 7e-4 7.1e-4 7e-4 7.1e-4 0.41085 0.41085 0.96787 0.64169 1.5501 0.64232 0.58135-2.7e-4 1.1388-0.23153 1.5496-0.64228 1.1814-1.1814 2.8019-2.8019 3.9833-3.9833 0.41161-0.41162 0.64201-0.9682 0.64228-1.5496-6.2e-4 -0.58224-0.23146-1.1393-0.64231-1.5501l-7.1e-4 -7.1e-4c-0.41086-0.41086-0.96787-0.64169-1.5501-0.64231-0.58136 2.7e-4 -1.1379 0.23066-1.5496 0.64228l-3.9833 3.9833z"/><path
          d="m168.25 380.28c-0.41075-0.41075-0.96821-0.64202-1.5496-0.64228-0.58224 6.3e-4 -1.1392 0.23146-1.5501 0.64232l-7e-4 7e-4c-0.41085 0.41086-0.6417 0.96787-0.64233 1.5501 2.7e-4 0.58136 0.23154 1.1388 0.64229 1.5496l3.9833 3.9833c0.41162 0.41162 0.9682 0.64201 1.5496 0.64228 0.58224-6.2e-4 1.1393-0.23146 1.5501-0.64231l7.1e-4 -7.1e-4c0.41085-0.41086 0.64169-0.96787 0.64231-1.5501-2.7e-4 -0.58136-0.23067-1.1379-0.64228-1.5496-1.1814-1.1814-2.8019-2.8019-3.9833-3.9833z"/></g>
      </g>
    </g>
  </g>
  <g clip-rule="evenodd" fill-rule="evenodd"><path
    transform="translate(-122.51 -306.43)"
    d="m182.49 402.01 2e-5 -1e-5c-7.2997-0.0208-23.165 0.88429-33.293 8.4609-11.626 8.6976-11.791 17.137-11.791 17.137l0.0625 55.586c-6e-4 3e-3 4.414 1.3371 6.1133 1.3383 1.6992 1e-3 35.48-0.0585 42.646-0.0703s39.753 0.0702 42.998 0.0702 6.1152-1.2168 6.1152-1.2168l0.0625-55.707s0.0125-8.2829-11.613-16.98c-9.4026-7.0343-23.762-8.4182-31.617-8.61z"
    fill="#ef9a9a"/><path
    transform="translate(-122.51 -306.43)"
    d="m179.88 402.05 9.5118 2e-3s-7.584 5.5738-7.6184 8.159c-0.0344 2.5853 37.746 5.8285 38.014 19.838 0.22131 11.571-17.382 17.823-17.326 29.503 0.0487 10.129 28.942 25.071 28.942 25.071l-90.734-0.0553s-1.4245-18.421 11.759-31.005c13.183-12.584 42.996-15.88 42.097-23.52-0.89885-7.6404-28.138-8.4156-27.865-15.757 0.23004-6.1755 13.22-12.235 13.22-12.235z"
    fill="#fff"/></g>
</svg>
